<?xml version="1.0" encoding="utf-8"?>
<!-- Generator: Adobe Illustrator 24.1.0, SVG Export Plug-In . SVG Version: 6.00 Build 0)  -->
<svg version="1.1" xmlns="http://www.w3.org/2000/svg" xmlns:xlink="http://www.w3.org/1999/xlink" x="0px" y="0px"
	 viewBox="0 0 859.32 253.78" style="enable-background:new 0 0 859.32 253.78;" xml:space="preserve">
<style type="text/css">
	.st0{fill:#FFFFFF;}
	.st1{fill:#21B685;}
	.st2{enable-background:new    ;}
	.st3{fill:#44BACB;}
	.st4{display:none;fill:#44BACB;}
	.st5{display:none;}
	.st6{display:inline;}
	.st7{fill:#1A1A1A;}
	.st8{fill:#A6A6A6;}
	.st9{fill:#737373;}
	.st10{display:none;fill:#A6A6A6;}
	.st11{fill:#2E2E2F;}
	.st12{fill:#48B9CA;}
	.st13{display:none;fill:#48B9CA;}
</style>
<g id="Stacked-Grayscale_copy">
</g>
<g id="Linear-Grayscale_copy">
	<g>
		<g>
			<path class="st0" d="M351.64,66.26c7.36,7.22,11.04,16.39,11.04,27.53c0,11.14-3.68,20.35-11.04,27.64
				c-7.36,7.29-16.69,10.93-27.97,10.93h-29.12V55.43h29.12C334.96,55.43,344.28,59.04,351.64,66.26z M339.39,110.38
				c4.18-4.32,6.26-9.85,6.26-16.59s-2.09-12.23-6.26-16.48c-4.18-4.25-9.56-6.37-16.15-6.37h-11.98v45.94h11.98
				C329.83,116.87,335.21,114.7,339.39,110.38z"/>
			<path class="st0" d="M366.88,50.16h16.04V65.1h-16.04V50.16z M366.88,73.02h16.04v59.34h-16.04V73.02z"/>
			<path class="st0" d="M451.86,72.91v59.34h-12.64l-1.32-5.28c-5.42,4.69-11.83,7.03-19.23,7.03c-8.94,0-16.36-2.99-22.25-8.96
				c-5.9-5.97-8.85-13.46-8.85-22.47c0-8.94,2.95-16.37,8.85-22.31c5.9-5.93,13.32-8.9,22.25-8.9c7.55,0,14.03,2.42,19.45,7.25
				l1.76-5.71H451.86z M431.53,114.23c3.08-3.08,4.62-6.96,4.62-11.65s-1.54-8.57-4.62-11.65c-3.08-3.08-6.92-4.62-11.54-4.62
				c-3.08,0-5.84,0.71-8.3,2.14c-2.45,1.43-4.38,3.37-5.77,5.82c-1.39,2.45-2.09,5.22-2.09,8.3c0,4.69,1.52,8.57,4.56,11.65
				c3.04,3.08,6.89,4.62,11.54,4.62C424.59,118.84,428.46,117.3,431.53,114.23z"/>
			<path class="st0" d="M517.76,73.02v52.42c0,6.15-1.23,11.48-3.68,15.99c-2.45,4.5-5.95,7.97-10.49,10.38
				c-4.54,2.42-9.93,3.63-16.15,3.63c-8.06,0-14.78-1.94-20.17-5.82c-5.38-3.88-8.74-9.19-10.06-15.93h15.93
				c0.88,2.49,2.64,4.45,5.27,5.88c2.64,1.43,5.53,2.14,8.68,2.14c4.25,0,7.78-1.26,10.6-3.79c2.82-2.53,4.23-5.92,4.23-10.17v-2.2
				c-4.91,3.52-10.55,5.27-16.92,5.27c-5.42,0-10.4-1.3-14.95-3.9c-4.54-2.6-8.1-6.17-10.66-10.72s-3.85-9.56-3.85-15.05
				c0-8.28,2.84-15.31,8.52-21.1c5.68-5.79,12.66-8.68,20.93-8.68c7.69,0,14.29,2.53,19.78,7.58l2.53-5.93H517.76z M497.76,112.19
				c2.86-2.89,4.29-6.57,4.29-11.04c0-4.4-1.41-8.04-4.23-10.94c-2.82-2.89-6.47-4.34-10.93-4.34c-4.32,0-7.91,1.45-10.77,4.34
				c-2.86,2.89-4.29,6.54-4.29,10.94c0,4.47,1.41,8.15,4.23,11.04c2.82,2.89,6.43,4.34,10.82,4.34S494.91,115.09,497.76,112.19z"/>
			<path class="st0" d="M574.01,78.35c3.92,4.51,5.88,10.53,5.88,18.08v35.94h-16.04V98.95c0-8.86-3.44-13.3-10.33-13.3
				c-2.71,0-5.07,0.62-7.09,1.87c-2.01,1.25-3.55,3.04-4.62,5.38s-1.59,5.09-1.59,8.24v31.21h-16.04V73.02h10.99l3.19,7.36
				c1.1-1.39,2.36-2.62,3.79-3.68c1.43-1.06,2.99-1.98,4.67-2.75c1.69-0.77,3.46-1.36,5.33-1.76c1.87-0.4,3.83-0.61,5.88-0.61
				C564.76,71.59,570.09,73.84,574.01,78.35z"/>
			<path class="st0" d="M599.65,129.94c-4.91-2.71-8.74-6.47-11.48-11.26c-2.75-4.8-4.12-10.13-4.12-15.99
				c0-9.01,3.04-16.48,9.12-22.42c6.08-5.93,13.74-8.9,22.97-8.9c9.16,0,16.78,2.97,22.86,8.9c6.08,5.93,9.12,13.41,9.12,22.42
				c0,8.94-3.06,16.39-9.18,22.36c-6.12,5.97-13.72,8.96-22.8,8.96C610.05,134.01,604.56,132.65,599.65,129.94z M627.46,114.39
				c2.93-3.04,4.4-6.94,4.4-11.7c0-4.76-1.46-8.66-4.4-11.7c-2.93-3.04-6.72-4.56-11.37-4.56c-4.65,0-8.44,1.52-11.37,4.56
				c-2.93,3.04-4.4,6.94-4.4,11.7c0,2.34,0.39,4.54,1.15,6.59c0.77,2.05,1.85,3.77,3.24,5.16c1.39,1.39,3.06,2.49,5,3.3
				s4.08,1.21,6.43,1.21C620.75,118.95,624.52,117.43,627.46,114.39z"/>
			<path class="st0" d="M661.84,131.37c-3.77-1.76-6.7-4.25-8.79-7.47c-2.09-3.22-3.13-6.92-3.13-11.1h15.61
				c0.07,1.76,0.53,3.24,1.37,4.45c0.84,1.21,2,2.09,3.46,2.64c1.46,0.55,3.15,0.82,5.05,0.82c1.54,0,2.93-0.22,4.18-0.66
				c1.25-0.44,2.27-1.12,3.08-2.03s1.21-2,1.21-3.24c0-1.83-0.95-3.19-2.86-4.07s-4.76-1.65-8.57-2.31
				c-2.42-0.37-4.41-0.73-5.99-1.1c-1.57-0.37-3.44-1.01-5.6-1.92c-2.16-0.92-3.88-1.96-5.16-3.13c-1.28-1.17-2.4-2.78-3.35-4.84
				c-0.95-2.05-1.43-4.43-1.43-7.14c0-5.57,2.2-10.11,6.59-13.63c4.4-3.52,10.17-5.27,17.31-5.27c7.14,0,12.89,1.81,17.25,5.44
				c4.36,3.63,6.54,8.41,6.54,14.34h-15.27c0-4.69-2.97-7.03-8.9-7.03c-2.49,0-4.43,0.51-5.82,1.54c-1.39,1.03-2.09,2.42-2.09,4.18
				c0,0.73,0.2,1.41,0.6,2.03c0.4,0.62,0.88,1.12,1.43,1.48c0.55,0.37,1.41,0.71,2.58,1.04c1.17,0.33,2.16,0.57,2.97,0.71l3.63,0.66
				c1.39,0.29,2.38,0.49,2.97,0.6c0.59,0.11,1.58,0.31,2.97,0.6c1.39,0.29,2.44,0.57,3.13,0.82c0.7,0.26,1.65,0.6,2.86,1.04
				c1.21,0.44,2.12,0.9,2.75,1.37c0.62,0.48,1.39,1.04,2.31,1.7c0.92,0.66,1.63,1.39,2.14,2.2c0.51,0.81,1.02,1.68,1.54,2.64
				c0.51,0.95,0.86,2.05,1.04,3.3c0.18,1.24,0.27,2.56,0.27,3.96c0,6.08-2.27,10.94-6.81,14.56s-10.55,5.44-18.02,5.44
				C669.96,134.01,665.61,133.13,661.84,131.37z"/>
			<path class="st0" d="M743.86,118.07v14.29h-11.32c-4.32,0-8.08-0.84-11.26-2.53c-3.19-1.69-5.62-4.12-7.31-7.31
				c-1.68-3.19-2.53-6.98-2.53-11.37V85.87h-10.77v-3.41l23.52-24.95h2.97v15.5h16.37v12.86h-16.04v23.19
				c0,2.86,0.79,5.07,2.36,6.65c1.58,1.58,3.83,2.36,6.76,2.36H743.86z"/>
			<path class="st0" d="M748.22,50.16h16.05V65.1h-16.05V50.16z M748.22,73.02h16.05v59.34h-16.05V73.02z"/>
			<path class="st0" d="M784.36,129.89c-4.8-2.75-8.57-6.54-11.32-11.37c-2.75-4.84-4.12-10.18-4.12-16.05c0-8.86,3-16.26,9.01-22.2
				c6.01-5.93,13.52-8.9,22.53-8.9c7.69,0,14.29,2.22,19.78,6.65c5.49,4.43,8.97,10.31,10.44,17.64h-15.93
				c-1.32-2.86-3.24-5.11-5.77-6.76c-2.53-1.65-5.4-2.47-8.63-2.47c-4.32,0-7.93,1.54-10.82,4.62c-2.89,3.08-4.34,6.92-4.34,11.54
				c0,4.62,1.47,8.5,4.4,11.65c2.93,3.15,6.52,4.72,10.77,4.72c3.22,0,6.08-0.86,8.57-2.58c2.49-1.72,4.43-4.19,5.82-7.42h16.15
				c-1.46,7.55-4.98,13.61-10.55,18.19c-5.57,4.58-12.23,6.87-20,6.87C794.49,134.01,789.16,132.63,784.36,129.89z"/>
		</g>
		<g>
			<path class="st0" d="M316.23,165.16h7.16c2.47,0,4.43,0.74,5.89,2.21c1.45,1.47,2.18,3.53,2.18,6.17v0.91
				c0,3.65-1.35,6.16-4.06,7.51c1.46,0.58,2.58,1.52,3.38,2.84c0.79,1.32,1.19,2.94,1.19,4.87v2.54c0,2.61-0.75,4.67-2.26,6.19
				c-1.51,1.52-3.48,2.28-5.91,2.28h-7.56V165.16z M319.63,180.79h3.45c1.56,0,2.77-0.48,3.63-1.45S328,177,328,175.21v-1.52
				c0-1.79-0.43-3.17-1.29-4.14s-2.07-1.45-3.63-1.45h-3.45V180.79z M319.63,197.79h3.96c1.56,0,2.77-0.48,3.63-1.45
				c0.86-0.97,1.29-2.34,1.29-4.14v-3.1c0-1.79-0.43-3.17-1.29-4.14c-0.86-0.97-2.07-1.45-3.63-1.45h-3.96V197.79z"/>
			<path class="st0" d="M388.05,165.16h3.55v35.53h-3.55V165.16z"/>
			<path class="st0" d="M448.2,172.92c0-2.47,0.75-4.47,2.26-5.99c1.51-1.52,3.39-2.28,5.66-2.28c2.27,0,4.14,0.74,5.61,2.21
				c1.47,1.47,2.21,3.44,2.21,5.91v20.2c0,2.47-0.75,4.46-2.26,5.96c-1.51,1.51-3.39,2.26-5.66,2.26s-4.14-0.74-5.61-2.21
				c-1.47-1.47-2.21-3.44-2.21-5.91V172.92z M451.6,192.92c0,1.59,0.41,2.83,1.24,3.73c0.83,0.9,1.9,1.34,3.22,1.34
				c1.32,0,2.39-0.45,3.2-1.34c0.81-0.9,1.22-2.14,1.22-3.73v-20c0-1.56-0.41-2.79-1.22-3.7c-0.81-0.91-1.88-1.37-3.2-1.37
				c-1.32,0-2.39,0.46-3.22,1.37c-0.83,0.91-1.24,2.15-1.24,3.7V192.92z"/>
			<path class="st0" d="M531.54,188.25h3.3v5.02c0,2.37-0.71,4.28-2.13,5.74c-1.42,1.46-3.21,2.18-5.38,2.18
				c-2.2,0-4.01-0.71-5.43-2.13c-1.42-1.42-2.13-3.33-2.13-5.74v-20.66c0-2.4,0.73-4.34,2.18-5.81c1.46-1.47,3.28-2.21,5.48-2.21
				c2.17,0,3.94,0.71,5.33,2.13c1.39,1.42,2.08,3.32,2.08,5.68v4.62h-3.3v-4.42c0-1.49-0.38-2.66-1.14-3.53
				c-0.76-0.86-1.77-1.29-3.02-1.29c-1.25,0-2.27,0.43-3.05,1.29c-0.78,0.86-1.17,2.04-1.17,3.53v20.5c0,1.52,0.39,2.71,1.17,3.55
				c0.78,0.85,1.79,1.27,3.05,1.27c1.25,0,2.26-0.42,3.02-1.27c0.76-0.85,1.14-2.03,1.14-3.55V188.25z"/>
			<path class="st0" d="M603.25,183.58h-8.63v17.1h-3.4v-35.53h3.4v15.18h8.63v-15.18h3.45v35.53h-3.45V183.58z"/>
			<path class="st0" d="M663.81,165.16h3.55v35.53h-3.55V165.16z"/>
			<path class="st0" d="M724.46,165.16h7.16c2.57,0,4.6,0.75,6.09,2.26c1.49,1.51,2.23,3.63,2.23,6.37v3.96
				c0,2.74-0.76,4.88-2.28,6.42c-1.52,1.54-3.57,2.31-6.14,2.31h-3.65v14.21h-3.4V165.16z M727.86,183.43h3.71
				c1.56,0,2.77-0.48,3.63-1.45c0.86-0.96,1.29-2.34,1.29-4.14v-4.01c0-1.79-0.43-3.17-1.29-4.14c-0.86-0.96-2.07-1.45-3.63-1.45
				h-3.71V183.43z"/>
			<path class="st0" d="M797.55,192.92c0,1.59,0.41,2.85,1.22,3.78c0.81,0.93,1.88,1.4,3.2,1.4c1.32,0,2.39-0.44,3.22-1.32
				c0.83-0.88,1.24-2.08,1.24-3.6c0-1.73-0.46-3.32-1.37-4.8c-0.91-1.47-2.44-3.21-4.57-5.2c-3.93-3.65-5.89-7.22-5.89-10.71
				c0-2.34,0.74-4.22,2.21-5.66c1.47-1.44,3.29-2.16,5.46-2.16s3.94,0.71,5.33,2.13c1.39,1.42,2.08,3.32,2.08,5.68v1.83h-3.25v-1.62
				c0-1.52-0.39-2.72-1.17-3.58c-0.78-0.86-1.79-1.29-3.05-1.29c-1.25,0-2.26,0.41-3.02,1.22c-0.76,0.81-1.14,1.95-1.14,3.4
				c0,1.42,0.41,2.77,1.22,4.06c0.81,1.29,2.13,2.77,3.96,4.47c2.2,2.06,3.85,4.05,4.95,5.96c1.1,1.91,1.65,3.98,1.65,6.22
				c0,2.4-0.75,4.35-2.26,5.84c-1.51,1.49-3.39,2.23-5.66,2.23s-4.11-0.73-5.53-2.18c-1.42-1.45-2.13-3.42-2.13-5.89v-2.34h3.3
				V192.92z"/>
		</g>
	</g>
	<g>
		<g>
			<path class="st1" d="M93.52,99.46c1.85-1.74,4.16-2.99,6.73-3.55l1.37-27.73c-0.44-0.17-0.86-0.35-1.27-0.57L78.31,90.32
				L93.52,99.46z"/>
			<circle class="st1" cx="105.91" cy="56.95" r="6.48"/>
			<circle class="st1" cx="103.31" cy="109.92" r="8.79"/>
			<path class="st1" d="M90.67,116.69L53.9,125.6c-0.12,0.94-0.34,1.84-0.63,2.71l21.5,12.56c1.66-1.31,3.75-2.11,6.02-2.11
				c0.44,0,0.87,0.04,1.29,0.1l10.96-18.94C92.12,118.97,91.31,117.88,90.67,116.69z"/>
			<path class="st1" d="M52.39,117.03c0.2,0.38,0.39,0.78,0.56,1.18l36.04-8.73c0.04-1.3,0.24-2.56,0.6-3.74l-16.58-9.96
				L52.39,117.03z"/>
			<circle class="st1" cx="80.8" cy="148.49" r="4.17"/>
			<circle class="st1" cx="56.72" cy="81.68" r="6.48"/>
			<path class="st1" d="M66.49,91.86l-1.88-1.13c-2.12,1.85-4.87,2.97-7.89,2.97c-1.24,0-2.44-0.19-3.57-0.54
				c-3.9,4.58-6.44,11.38-6.16,18.2c0.12,0.07,0.24,0.14,0.36,0.21L66.49,91.86z"/>
			<circle class="st1" cx="39.7" cy="123.7" r="8.79"/>
			<path class="st1" d="M133.8,173.82c-0.6,3.16-2.25,5.95-4.56,8.01l12.55,25.1l0-33.65L133.8,173.82z"/>
			<circle class="st1" cx="92.5" cy="31.11" r="4.17"/>
			<path class="st1" d="M109.02,68.56l-1.36,27.69c3.51,1.12,6.44,3.55,8.21,6.73l21.23-5.14l-26.2-29.94
				C110.29,68.16,109.66,68.39,109.02,68.56z"/>
			<path class="st1" d="M141.8,91.97l0-57.97l-24.65,18.69c0.5,1.33,0.79,2.76,0.79,4.26c0,2.16-0.58,4.19-1.59,5.95L141.8,91.97z"
				/>
			<path class="st1" d="M115.57,117.34l26.22,28l0-41.03l-24.15,5.85C117.61,112.79,116.85,115.24,115.57,117.34z"/>
			<circle class="st1" cx="63.82" cy="200" r="6.48"/>
			<path class="st1" d="M68.75,81.68c0,0.94-0.12,1.84-0.32,2.72l3.35,2.01l23.37-24.08c-0.81-1.62-1.28-3.44-1.28-5.38
				c0-3.33,1.36-6.35,3.55-8.53l-4.02-7.64c-0.3,0.03-0.6,0.05-0.91,0.05c-1.02,0-2.01-0.16-2.93-0.45
				c-0.21,0.25-0.42,0.5-0.63,0.76c0,0-8.17,12.11-19.33,19.05c-3.82,2.38-4.2,5.7-4.95,12.47C67.16,74.86,68.75,78.08,68.75,81.68z
				"/>
			<path class="st1" d="M99.22,214.16l12.31-31.26c-0.98-0.68-1.86-1.48-2.64-2.38l-33.22,17.44c0.11,0.66,0.19,1.34,0.19,2.04
				c0,3.68-1.66,6.97-4.27,9.18c1.1,2.06,2.31,3.92,3.44,5.12c3.34,3.55,9.68,5.73,15.19,5.96
				C91.66,216.69,95.15,214.16,99.22,214.16z"/>
			<path class="st1" d="M55.83,191.03c2.13-1.9,4.93-3.07,8-3.07c3.27,0,6.23,1.31,8.41,3.44l33.38-17.53l-53.36-3.91
				c-0.81,1.82-2.16,3.34-3.84,4.36C48.19,182.16,50.47,187.88,55.83,191.03z"/>
			<circle class="st1" cx="43.37" cy="166.04" r="4.17"/>
			<path class="st1" d="M122.63,185.17c-0.94,0.2-1.92,0.3-2.92,0.3c-0.41,0-0.81-0.03-1.22-0.06l-12.43,31.56
				c1.78,1.76,2.89,4.21,2.89,6.9c0,1.35-0.28,2.64-0.78,3.82c3.79,3.81,9.12,5.92,14.5,5.77c8.32-0.24,14.99-5.46,17.75-12.72
				L122.63,185.17z"/>
			<circle class="st1" cx="99.24" cy="223.88" r="4.17"/>
			<path class="st1" d="M86.53,156.32c-1.61,1.18-3.59,1.89-5.73,1.89c-2.48,0-4.74-0.94-6.46-2.48l-15.12,7.32l44.41,3.25
				L86.53,156.32z"/>
			<path class="st1" d="M118.02,156.89l2.8-23.11l-10.58-11.3c-2.05,1.14-4.41,1.79-6.92,1.79c-1.35,0-2.66-0.2-3.9-0.55
				L88.5,142.58c1.26,1.64,2.02,3.69,2.02,5.91c0,0.51-0.05,1.02-0.13,1.51l19.05,11.13C111.68,158.83,114.67,157.28,118.02,156.89z
				"/>
			<path class="st1" d="M71.11,149.07c-0.01-0.19-0.03-0.38-0.03-0.58c0-0.39,0.03-0.77,0.07-1.15l-22.02-12.86
				c-2.53,2.22-5.82,3.57-9.44,3.57c-0.88,0-1.74-0.09-2.57-0.24c-0.03,0.16-0.07,0.32-0.09,0.49c-0.58,4.56-1.15,9.68,5.47,18.07
				c0.28-0.03,0.57-0.04,0.86-0.04c2.68,0,5.11,1.09,6.87,2.85L71.11,149.07z"/>
			<path class="st1" d="M133.26,166.43l8.53-0.58l0-9.68l-14.37-15.34l-2.07,17.1C129.05,159.52,131.93,162.61,133.26,166.43z"/>
			<circle class="st1" cx="119.72" cy="171.13" r="8.79"/>
			<path class="st1" d="M102.22,31.11c0,2.37-0.85,4.53-2.26,6.22l4.08,7.74c0.61-0.1,1.24-0.16,1.88-0.16
				c2.44,0,4.71,0.74,6.61,1.99l27.96-21.21c-2.54-6.01-8.57-8.83-16.2-6.86c-8.17,2.12-15.65,5.36-22.34,10.04
				C102.12,29.6,102.22,30.34,102.22,31.11z"/>
		</g>
		<g class="st2">
			<path class="st3" d="M255.84,144.94l-20.95,0.13l-16.11,16.17l7.26,7.26c0.67-0.19,1.37-0.3,2.1-0.3c4.22,0,7.64,3.42,7.64,7.64
				c0,4.22-3.42,7.64-7.64,7.64c-4.22,0-7.64-3.42-7.64-7.64c0-0.73,0.11-1.43,0.3-2.1l-7.25-7.25l-11.66,11.7
				c0.25,0.75,0.39,1.56,0.39,2.39c0,4.22-3.42,7.64-7.64,7.64c-4.22,0-7.64-3.42-7.64-7.64c0-4.22,3.42-7.64,7.64-7.64
				c0.62,0,1.22,0.08,1.8,0.22l35.34-35.48l23.78-0.15c-1-5.77-4.86-10.68-7.92-13.79c-2.14-2.16-3.08-5.26-2.42-8.22
				c2.31-10.45-2.87-21.94-10.11-26.24c0,0-4.76-2.56-6.31-10.96h-15.2v8.77c2.3,1.32,3.85,3.79,3.85,6.62
				c0,4.22-3.42,7.64-7.64,7.64c-4.22,0-7.64-3.42-7.64-7.64c0-2.91,1.63-5.44,4.03-6.73V76.16l-8.28-8.28
				c-0.64,0.17-1.31,0.27-2,0.27c-4.22,0-7.64-3.42-7.64-7.64s3.42-7.64,7.64-7.64c4.22,0,7.64,3.42,7.64,7.64
				c0,0.77-0.12,1.51-0.33,2.2l8.2,8.2h16.45c-0.65-5.63-1.27-8.57-4.76-10.74c-11.16-6.94-19.33-19.05-19.33-19.05
				c-9.39-11.8-21.37-18.68-35.35-22.3c-10.17-2.63-17.5,3.26-17.51,13.88l0,23.18l11.34-11.34c-0.19-0.67-0.3-1.37-0.3-2.1
				c0-4.22,3.42-7.64,7.64-7.64c4.22,0,7.64,3.42,7.64,7.64s-3.42,7.64-7.64,7.64c-0.73,0-1.43-0.11-2.1-0.3l-16.58,16.58l0,65.65
				h8.38l12.91-12.91V97.16c-2.36-1.3-3.95-3.81-3.95-6.69c0-4.22,3.42-7.64,7.64-7.64s7.64,3.42,7.64,7.64
				c0,2.87-1.58,5.36-3.92,6.67v19.8h38.47c1.34-2.19,3.75-3.66,6.51-3.66c4.22,0,7.64,3.42,7.64,7.64c0,4.22-3.42,7.64-7.64,7.64
				c-2.99,0-5.57-1.72-6.82-4.22h-40.33l-15.08,15.08h-11.45l0,28.19l17.11-0.3l22.58-21.8c-0.33-0.86-0.53-1.79-0.53-2.77
				c0-4.22,3.42-7.64,7.64-7.64c4.22,0,7.64,3.42,7.64,7.64c0,4.22-3.42,7.64-7.64,7.64c-0.47,0-0.92-0.05-1.37-0.13l-23.16,22.36
				v31.19c2.35,1.3,3.94,3.81,3.94,6.68c0,4.22-3.42,7.64-7.64,7.64s-7.64-3.42-7.64-7.64c0-2.88,1.59-5.38,3.94-6.68v-29.04
				l-14.88,0.26l0,38.28c0.04,10.89,8.15,19.84,19.12,20.15c7.52,0.22,14.94-3.96,18.21-11.07c1.33-2.88,4.77-4.22,7.71-3.02
				c5.8,2.36,16.89,0.06,21.72-5.07c2.92-3.1,6.47-10.6,6.83-14.54c0.3-3.17,2.66-5.76,5.78-6.39c1.06-0.21,2.02-0.43,2.61-0.6
				c8.86-2.64,12.17-9.86,11.28-20.63c-0.01-1.44-0.11-2.84-0.23-4.07c-0.27-2.75,0.67-5.49,2.57-7.48
				C253.02,153.8,255.25,148.92,255.84,144.94z"/>
			<path class="st4" d="M146.36,17.19c5.62-6.57,12.48-9.91,20.38-8.4c16.48,3.14,30.85,10.58,42.07,23.45
				c4.73,5.44,8.29,11.56,14.83,15.82c9.5,6.2,13.72,16.12,12.84,27.86c-0.1,1.36,1,3.45,2.18,4.17c12.5,7.6,18.42,19.38,15.8,33.33
				c-0.59,3.14-0.16,5.06,1.79,7.37c11.21,13.29,10.52,31.13-1.33,43.82c-1.06,1.14-1.64,3.48-1.32,5.04
				c2.79,13.86-4.46,27.29-17.51,32.46c-1.48,0.59-3.23,2.35-3.52,3.83c-2.42,12.33-16.41,25.74-32.99,22.29
				c-3.13-0.65-4.42,1.14-5.85,3.12c-5.53,7.65-13.28,11.24-22.45,11.55c-10.39,0.36-18.42-4.52-24.95-12.84
				c0,0-4.71-5.4-4.71-15.09c0-9.7,0.23-165.81,0.06-184.02C141.65,25.02,146.36,17.19,146.36,17.19z M226.55,76.43 M247.66,123.75
				c-2.14-2.16-3.08-5.26-2.42-8.22c2.31-10.45-2.87-21.94-10.11-26.24c0,0-5.35-2.86-6.56-12.51c-1.21-9.65-0.9-13.77-5.43-16.59
				c-11.16-6.94-19.33-19.05-19.33-19.05c-9.39-11.8-21.37-18.68-35.35-22.3c-10.17-2.63-17.5,3.26-17.51,13.88l0,180.59
				c0.04,10.89,8.15,19.84,19.12,20.15c7.52,0.22,14.94-3.96,18.21-11.07c1.33-2.88,4.77-4.22,7.71-3.02
				c5.8,2.36,16.89,0.06,21.72-5.07c2.92-3.1,6.47-10.6,6.83-14.54c0.3-3.17,2.66-5.76,5.78-6.39c1.06-0.21,2.02-0.43,2.61-0.6
				c8.86-2.64,12.17-9.86,11.28-20.63c-0.01-1.44-0.11-2.84-0.23-4.07c-0.27-2.75,0.67-5.49,2.57-7.48
				c10.5-10.97,9.83-16.99,9.15-22.28C254.92,132.19,250.86,126.99,247.66,123.75z"/>
		</g>
	</g>
</g>
<g id="Stacked-Grayscale" class="st5">
</g>
<g id="Linear-Grayscale" class="st5">
</g>
<g id="Stacked-CMYK" class="st5">
</g>
<g id="Linear-CMYK" class="st5">
</g>
</svg>
